<?xml version="1.0" encoding="utf-8"?>
<!-- Generator: Adobe Illustrator 18.0.0, SVG Export Plug-In . SVG Version: 6.00 Build 0)  -->
<!DOCTYPE svg PUBLIC "-//W3C//DTD SVG 1.1//EN" "http://www.w3.org/Graphics/SVG/1.1/DTD/svg11.dtd">
<svg version="1.1" id="Layer_1" xmlns="http://www.w3.org/2000/svg" xmlns:xlink="http://www.w3.org/1999/xlink" x="0px" y="0px"
	 viewBox="0 0 1817.5 1076.9" enable-background="new 0 0 1817.5 1076.9" xml:space="preserve">
<polygon fill="#372A1A" points="1033.4,651.4 1090.4,651.4 1090.4,527.5 1167,651.4 1230.4,651.4 1230.4,433.4 1167.3,433.4
	1172.9,553.4 1099.1,433.4 1033.4,433.4 "/>
<polyline fill="#372A1A" points="157.9,432.4 158.8,432.4 231.9,432.4 269.8,503.5 306.1,432.4 364.9,432.4 296.4,558.2
	296.4,651.4 230.4,651.4 230.4,557.9 157.1,432.4 231.9,432.4 "/>
<polygon fill="#372A1A" points="377.9,432.9 541.9,432.9 541.9,483.9 443.9,483.9 443.9,514.9 522.9,514.9 522.9,562.9 443.9,562.9
	443.9,598.9 541.9,598.9 541.9,650.9 377.9,650.9 "/>
<polygon fill="#372A1A" points="843.9,432.9 1007.9,432.9 1007.9,483.9 909.9,483.9 909.9,514.9 988.9,514.9 988.9,562.9
	909.9,562.9 909.9,598.9 1007.9,598.9 1007.9,650.9 843.9,650.9 "/>
<polygon fill="#372A1A" points="567.4,433.4 654.9,433.4 684.8,546.4 688.9,546.4 718.6,433.4 805.4,433.4 805.4,651.4 743.4,651.4
	743.4,495.9 703.8,651.4 659.9,651.4 618.4,497.5 618.4,651.4 567.4,651.4 "/>
<path fill="#FEC80E" d="M1537.9,488.1c-4.6-45.9-53-54.8-53-54.8h-144.5v80h-32v-81h-69v219h68v-83h33v83h83v-83h6.3l31.2,83h77.5
	l-37.5-94.9C1524.4,545.7,1542,528.3,1537.9,488.1z M1467,501.4c-2.1,24.2-43.1,17.5-43.1,17.5v-39h1
	C1446.3,479.9,1468.9,480.5,1467,501.4z"/>
<path fill="#FEC80E" d="M1635,400.2c-20.4-48.2-49.6-91.5-86.8-128.7c-37.2-37.2-80.5-66.4-128.7-86.8c-50-21.1-103-31.8-157.7-31.8
	s-107.7,10.7-157.7,31.8c-48.2,20.4-91.5,49.6-128.7,86.8c-37.2,37.2-66.4,80.7-86.8,129c-3.6,8.6-7,17.4-10,26.4h97
	c49.9-109,159.4-183.8,286.2-183.8c173.7,0,315,141.2,315,314.9s-141.3,315.2-315,315.2c-139.3,0-257.8-91.3-299.2-216.3h-93.7
	c5,20,11.6,39.6,19.8,58.9c20.4,48.2,49.6,91.4,86.8,128.6c37.2,37.2,80.5,66.3,128.7,86.7c50,21.1,103,31.8,157.7,31.8
	s107.7-10.7,157.7-31.9c48.2-20.4,91.5-49.6,128.7-86.8c37.2-37.2,66.4-80.5,86.8-128.7c21.1-50,31.8-103,31.8-157.7
	S1656.2,450.2,1635,400.2z"/>
</svg>
